<svg width="164" height="33" viewBox="0 0 164 33" fill="none" xmlns="http://www.w3.org/2000/svg">
<path d="M70.8975 7.31548H60.2832V0.255564H70.8975H77.9631H88.5775V7.31548H77.9631V32.2009H70.8975V7.31548Z" fill="white"/>
<path d="M91.7858 0.255564H98.8194V12.7142V19.7422V32.2009H91.7858V19.7422V12.7142V0.255564Z" fill="white"/>
<path d="M117.437 0.255564C125.909 0.255564 132.879 7.1877 132.879 15.6852V16.7713C132.879 25.2688 125.909 32.2009 117.437 32.2009C108.964 32.2009 102.027 25.2688 102.027 16.7713V15.6852C102.027 7.1877 108.964 0.255564 117.437 0.255564ZM117.437 7.31548C112.833 7.31548 109.092 11.085 109.092 15.6852V16.7713C109.092 21.3714 112.833 25.141 117.437 25.141C122.04 25.141 125.813 21.3714 125.813 16.7713V15.6852C125.813 11.085 122.04 7.31548 117.437 7.31548Z" fill="white"/>
<path d="M143.123 32.2009H136.089V9.32804V0.255564L143.123 5.97378L150.029 11.5642L156.934 17.1547V0H164V22.8729V31.9454L156.934 26.2271L150.029 20.6367L143.123 15.0463V32.2009Z" fill="white"/>
<path d="M0 0L17.3343 28.4997L31.6863 4.44151H35.2277L19.3845 32.2009H23.6715L42.3105 0H30.0088L21.994 14.0648L13.0473 0H0Z" fill="white"/>
<path d="M30.703 32.2009L49.5176 0L67.0226 32.2009H59.7559L49.5176 12.8475L38.1579 32.2009H30.703Z" fill="white"/>
</svg>